#N canvas -8 -8 1366 686 10;
#X msg 5 22 \; pd dsp \$1;
#X obj 5 3 tgl 15 0 empty empty empty 17 7 0 10 -262144 -1 -1 1 1;
#X obj 6 81 openpanel;
#X obj 6 60 bng 15 250 50 0 empty empty empty 17 7 0 10 -262144 -1
-1;
#X obj 6 123 soundfiler;
#X obj 6 145 s sampleSize;
#X obj 416 170 phasor~;
#X obj 770 254 tabread4~ channelL;
#X obj 907 255 tabread4~ channelR;
#X obj 908 295 *~;
#X obj 769 295 *~;
#X obj 966 428 dac~ 1 2, f 9;
#N canvas 0 50 450 250 (subpatch) 0;
#X array channelR 213748 float 2;
#X coords 0 1 213748 -1 120 80 1 0 0;
#X restore 770 117 graph;
#N canvas 0 50 450 250 (subpatch) 0;
#X array channelL 213748 float 2;
#X coords 0 1 213748 -1 120 80 1 0 0;
#X restore 770 19 graph;
#X obj 904 149 snapshot~;
#X obj 988 132 metro 50;
#X obj 988 114 tgl 15 1 empty empty empty 17 7 0 10 -262144 -1 -1 1
1;
#X obj 904 189 /, f 2;
#X obj 925 172 r sampleSize;
#X msg 6 102 read -resize \$1 channelL channelR;
#X obj 772 206 hsl 120 15 0 1 0 0 empty empty empty -2 -8 0 10 -262144
-1 -1 2659 1;
#X text 6 662 volume section;
#X text 34 58 open file;
#X obj 400 229 +~;
#X obj 415 207 *~;
#X obj 431 123 expr (44100 / $f1);
#X obj 666 50 r sampleSize;
#X obj 464 101 s sampleLen;
#X obj 441 190 r sampleLen;
#X obj 434 62 hsl 128 15 0 1 0 1 empty empty empty -2 -8 0 10 -262144
-1 -1 12700 1;
#X obj 431 84 *;
#X obj 289 191 r sampleSize;
#X obj 277 174 hsl 128 15 0 1 0 0 empty empty empty -2 -8 0 10 -262144
-1 -1 0 1;
#X obj 274 212 *;
#X text 272 158 Starting point;
#X text 428 46 Lenght;
#X obj 293 62 hsl 128 15 -10 10 0 0 empty empty empty -2 -8 0 10 -262144
-1 -1 6985 1;
#X floatatom 290 135 8 0 0 0 - - -, f 8;
#X msg 380 118 1;
#X text 295 46 Speed;
#X obj 416 149 *;
#X obj 274 239 s sampleStart;
#X obj 572 46 r sampleStart;
#X obj 572 67 expr $f2 - $f1;
#X obj 903 327 env~;
#X obj 787 327 env~;
#X obj 903 347 - 100;
#X obj 787 347 - 100;
#X obj 85 188 vsl 15 64 0 1 0 0 empty empty empty 0 -9 0 10 -262144
-1 -1 0 1;
#X obj 62 188 vsl 15 64 0 500 0 0 empty empty empty 0 -9 0 10 -262144
-1 -1 0 1;
#X obj 108 188 vsl 15 64 0 1000 0 0 empty empty empty 0 -9 0 10 -262144
-1 -1 0 1;
#X obj 39 188 vsl 15 64 0 300 0 0 empty empty empty 0 -9 0 10 -262144
-1 -1 0 1;
#X msg 16 307 1 \$2 \, \$4 \$3 \$2;
#X msg 130 304 0 \$2;
#X obj 16 350 vline~;
#X obj 16 414 s~ envel;
#X obj 784 274 r~ envel;
#X obj 924 274 r~ envel;
#X obj 829 311 *~;
#X obj 12 456 vsl 20 50 0 4 0 0 empty empty main_vol 0 -9 0 10 -262144
-1 -1 0 1;
#X obj 12 516 s mainvol;
#X obj 844 274 r mainvol;
#X obj 868 311 *~;
#X obj 13 568 vu 15 80 empty empty -1 -8 0 10 -66577 -1 1 0;
#X obj 63 569 vu 15 80 empty empty -1 -8 0 10 -66577 -1 1 0;
#X obj 12 542 r volL;
#X obj 787 366 s volL;
#X obj 903 366 s volR;
#X obj 62 543 r volR;
#X text 930 203 Output section;
#X obj 63 287 pack f f;
#X floatatom 16 396 5 0 0 0 - - -, f 5;
#X obj 16 374 snapshot~;
#X obj 93 357 metro 50;
#X obj 93 336 tgl 15 0 empty empty empty 17 7 0 10 -262144 -1 -1 0
1;
#X obj 16 267 pack f f f f;
#X obj 140 269 sel 0;
#X text 38 167 ADSR section;
#X text 284 3 Sampler section;
#X obj 380 96 bng 15 250 50 0 empty empty empty 17 7 0 10 -262144 -1
-1;
#X obj 451 296 s~ waveout;
#X obj 905 125 r~ waveout;
#X obj 770 228 r~ waveout;
#X obj 907 226 r~ waveout;
#X text 138 245 Midi shit here;
#X obj 450 269 +~;
#X obj 517 193 phasor~;
#X obj 466 245 samphold~;
#X obj 290 26 bng 15 250 50 0 empty empty empty 17 7 0 10 -262144 -1
-1;
#N canvas 0 50 450 250 (subpatch) 0;
#X array t_waveoutL 200 float 3;
#A 0 0 0 0 0 0 0 0 0 0 0 0 0 0 0 0 0 0 0 0 0 0 0 0 0 0 0 0 0 0 0 0
0 0 0 0 0 0 0 0 0 0 0 0 0 0 0 0 0 0 0 0 0 0 0 0 0 0 0 0 0 0 0 0 0 0
0 0 0 0 0 0 0 0 0 0 0 0 0 0 0 0 0 0 0 0 0 0 0 0 0 0 0 0 0 0 0 0 0 0
0 0 0 0 0 0 0 0 0 0 0 0 0 0 0 0 0 0 0 0 0 0 0 0 0 0 0 0 0 0 0 0 0 0
0 0 0 0 0 0 0 0 0 0 0 0 0 0 0 0 0 0 0 0 0 0 0 0 0 0 0 0 0 0 0 0 0 0
0 0 0 0 0 0 0 0 0 0 0 0 0 0 0 0 0 0 0 0 0 0 0 0 0 0 0 0 0 0 0 0 0;
#X coords 0 1 200 -1 100 30 1 0 0;
#X restore 907 19 graph;
#X obj 834 368 tgl 15 0 empty empty empty 17 7 0 10 -262144 -1 -1 1
1;
#X obj 867 346 s~ sR;
#X obj 967 316 r~ sL;
#X obj 1018 316 r~ sR;
#X obj 828 346 s~ sL;
#X obj 792 412 r~ sL;
#X obj 834 386 metro 50;
#X obj 834 428 tabwrite~ t_waveoutL;
#N canvas 0 50 450 250 (subpatch) 0;
#X array t_waveoutR 200 float 3;
#A 0 0 0 0 0 0 0 0 0 0 0 0 0 0 0 0 0 0 0 0 0 0 0 0 0 0 0 0 0 0 0 0
0 0 0 0 0 0 0 0 0 0 0 0 0 0 0 0 0 0 0 0 0 0 0 0 0 0 0 0 0 0 0 0 0 0
0 0 0 0 0 0 0 0 0 0 0 0 0 0 0 0 0 0 0 0 0 0 0 0 0 0 0 0 0 0 0 0 0 0
0 0 0 0 0 0 0 0 0 0 0 0 0 0 0 0 0 0 0 0 0 0 0 0 0 0 0 0 0 0 0 0 0 0
0 0 0 0 0 0 0 0 0 0 0 0 0 0 0 0 0 0 0 0 0 0 0 0 0 0 0 0 0 0 0 0 0 0
0 0 0 0 0 0 0 0 0 0 0 0 0 0 0 0 0 0 0 0 0 0 0 0 0 0 0 0 0 0 0 0 0;
#X coords 0 1 200 -1 100 30 1 0 0;
#X restore 907 67 graph;
#X obj 834 406 tabwrite~ t_waveoutR;
#X obj 792 390 r~ sL;
#X text 514 153 Granular phasor;
#X obj 1017 406 lop~;
#X obj 128 602 vsl 15 32 1 20000 1 1 empty empty lowpass 0 -9 0 10
-262144 -1 -1 3100 1;
#X obj 967 406 lop~;
#X obj 1017 362 hip~;
#X obj 966 362 hip~;
#X obj 128 644 s cutLo;
#X obj 988 383 r cutLo;
#X obj 187 603 vsl 15 32 200 20000 1 1 empty empty hipass 0 -9 0 10
-262144 -1 -1 0 1;
#X obj 187 644 s cutHi;
#X obj 987 338 r cutHi;
#X text 963 293 Filters;
#X text 130 663 Filters Controls;
#X obj 520 172 hsl 128 15 0 10000 0 0 empty empty empty -2 -8 0 10
-262144 -1 -1 0 1;
#X obj 517 218 *~ 8;
#X connect 1 0 0 0;
#X connect 2 0 19 0;
#X connect 3 0 2 0;
#X connect 4 0 5 0;
#X connect 6 0 24 0;
#X connect 7 0 10 0;
#X connect 8 0 9 0;
#X connect 9 0 62 1;
#X connect 10 0 58 0;
#X connect 14 0 17 0;
#X connect 15 0 14 0;
#X connect 16 0 15 0;
#X connect 17 0 20 0;
#X connect 18 0 17 1;
#X connect 19 0 4 0;
#X connect 23 0 85 0;
#X connect 23 0 87 0;
#X connect 24 0 23 1;
#X connect 25 0 40 1;
#X connect 26 0 43 1;
#X connect 28 0 24 1;
#X connect 29 0 30 0;
#X connect 29 0 88 0;
#X connect 30 0 27 0;
#X connect 30 0 25 0;
#X connect 31 0 33 1;
#X connect 32 0 33 0;
#X connect 33 0 41 0;
#X connect 33 0 23 0;
#X connect 36 0 37 0;
#X connect 37 0 40 0;
#X connect 38 0 37 0;
#X connect 38 0 36 0;
#X connect 38 0 40 0;
#X connect 40 0 6 0;
#X connect 42 0 43 0;
#X connect 43 0 30 1;
#X connect 44 0 46 0;
#X connect 45 0 47 0;
#X connect 46 0 67 0;
#X connect 47 0 66 0;
#X connect 48 0 75 3;
#X connect 49 0 75 2;
#X connect 50 0 70 1;
#X connect 51 0 75 1;
#X connect 52 0 54 0;
#X connect 53 0 54 0;
#X connect 54 0 72 0;
#X connect 56 0 10 1;
#X connect 57 0 9 1;
#X connect 58 0 45 0;
#X connect 58 0 94 0;
#X connect 59 0 60 0;
#X connect 61 0 58 1;
#X connect 61 0 62 0;
#X connect 62 0 44 0;
#X connect 62 0 91 0;
#X connect 65 0 63 0;
#X connect 68 0 64 0;
#X connect 70 0 53 0;
#X connect 71 0 55 0;
#X connect 72 0 71 0;
#X connect 73 0 72 0;
#X connect 74 0 73 0;
#X connect 75 0 52 0;
#X connect 76 0 70 0;
#X connect 79 0 38 0;
#X connect 81 0 14 0;
#X connect 82 0 7 0;
#X connect 83 0 8 0;
#X connect 85 0 80 0;
#X connect 86 0 115 0;
#X connect 87 0 85 1;
#X connect 88 0 36 0;
#X connect 90 0 96 0;
#X connect 92 0 106 0;
#X connect 93 0 105 0;
#X connect 95 0 97 0;
#X connect 96 0 97 0;
#X connect 96 0 99 0;
#X connect 100 0 99 0;
#X connect 102 0 11 1;
#X connect 103 0 107 0;
#X connect 104 0 11 0;
#X connect 105 0 102 0;
#X connect 106 0 104 0;
#X connect 108 0 102 1;
#X connect 108 0 104 1;
#X connect 109 0 110 0;
#X connect 111 0 106 1;
#X connect 111 0 105 1;
#X connect 114 0 86 0;
#X connect 115 0 87 1;
